<?xml version="1.0" standalone="no"?>
<!DOCTYPE svg PUBLIC "-//W3C//DTD SVG 20010904//EN"
 "http://www.w3.org/TR/2001/REC-SVG-20010904/DTD/svg10.dtd">
<svg version="1.0" xmlns="http://www.w3.org/2000/svg"
 width="1024.000000pt" height="560.000000pt" viewBox="0 0 1024.000000 560.000000"
 preserveAspectRatio="xMidYMid meet">

<g transform="translate(0.000000,560.000000) scale(0.100000,-0.100000)"
fill="#000000" stroke="none">
<path d="M4697 5183 c-4 -3 -7 -41 -7 -84 0 -43 -5 -81 -10 -84 -12 -8 -217
-30 -490 -55 -58 -5 -172 -17 -255 -26 l-150 -17 -95 27 c-52 15 -120 35 -150
44 -45 14 -94 17 -270 16 -208 -1 -218 -2 -317 -31 -73 -21 -121 -43 -171 -77
-63 -43 -164 -138 -188 -176 -9 -16 -124 -115 -185 -160 -19 -13 -75 -66 -125
-116 -68 -69 -101 -111 -133 -173 -23 -45 -52 -88 -64 -96 -22 -14 -121 -46
-182 -59 -16 -4 -59 -14 -95 -22 -36 -8 -83 -19 -105 -23 -149 -30 -421 -108
-476 -136 -14 -8 -50 -43 -79 -79 -46 -56 -66 -72 -144 -110 -171 -84 -333
-114 -706 -131 -147 -7 -192 -16 -257 -48 -39 -19 -43 -24 -43 -59 0 -49 20
-62 136 -89 130 -31 284 -79 284 -88 0 -14 -22 -28 -77 -50 -105 -41 -163 -98
-163 -158 0 -92 144 -261 252 -295 104 -34 245 -24 523 37 142 30 240 37 240
16 0 -21 -67 -56 -170 -90 -235 -77 -447 -104 -768 -100 -117 2 -222 0 -234
-5 -17 -5 -23 -15 -23 -36 0 -47 105 -150 323 -318 34 -26 68 -63 87 -97 37
-64 40 -65 205 -40 188 29 280 30 373 5 107 -29 158 -69 207 -164 34 -67 35
-71 35 -190 0 -144 11 -169 92 -215 107 -62 221 -92 688 -181 148 -28 215 -46
414 -112 100 -33 120 -42 193 -91 55 -37 107 -51 228 -63 39 -3 74 -9 79 -11
4 -3 -20 -19 -54 -36 -126 -62 -119 -143 20 -236 79 -52 194 -89 365 -118 50
-8 126 -21 170 -29 44 -7 105 -18 135 -23 30 -5 62 -12 70 -15 8 -3 44 -10 80
-16 36 -5 85 -13 110 -18 25 -5 106 -21 180 -36 74 -15 151 -31 170 -37 19 -5
78 -18 130 -29 52 -12 137 -32 189 -46 90 -24 116 -25 94 -3 -25 25 -708 170
-1223 259 -231 40 -319 63 -391 101 -119 64 -160 145 -103 202 36 37 93 55
213 69 65 8 106 18 109 26 3 9 -32 12 -150 12 -170 0 -307 17 -353 44 -16 9
-55 33 -85 52 -30 19 -75 41 -100 49 -25 7 -83 25 -130 40 -127 39 -210 60
-360 89 -74 15 -182 36 -240 47 -254 50 -421 112 -465 172 -17 24 -19 41 -17
113 9 246 -98 386 -322 425 -82 14 -259 6 -386 -17 l-85 -16 -15 23 c-27 41
-133 143 -210 202 -115 88 -220 195 -220 225 0 21 44 24 215 17 179 -7 323 2
490 32 295 52 531 146 499 199 -25 42 -72 41 -319 -11 -292 -61 -438 -66 -520
-15 -44 27 -124 117 -153 171 -13 23 -22 59 -22 83 0 56 38 93 153 146 67 31
88 45 85 58 -4 23 -89 55 -241 93 -183 45 -205 57 -187 105 15 39 75 52 316
69 275 19 309 22 399 42 111 24 194 51 281 93 67 32 93 52 144 110 64 73 100
96 180 119 25 7 56 17 70 21 39 13 253 63 420 99 227 49 288 79 326 155 14 28
32 63 40 78 25 47 165 188 249 252 44 33 127 110 185 169 205 213 275 243 580
254 171 6 264 -7 388 -53 93 -35 187 -39 387 -16 94 11 276 30 405 42 129 11
255 24 280 28 l45 7 0 85 0 85 905 3 c968 3 1060 0 1230 -44 302 -79 552 -216
1065 -584 346 -247 499 -348 710 -462 97 -53 96 -48 18 -206 -61 -122 -68
-162 -36 -193 29 -30 82 -38 230 -39 72 0 138 -2 146 -6 12 -4 12 -11 -1 -47
-8 -23 -15 -73 -16 -112 -2 -130 73 -242 253 -380 110 -83 136 -109 128 -128
-3 -7 -36 -26 -73 -41 -190 -77 -320 -147 -425 -232 -143 -114 -169 -224 -64
-268 150 -63 226 -45 616 149 l254 126 70 -4 c73 -4 220 -39 266 -62 39 -21
79 -73 79 -103 0 -40 -34 -151 -61 -199 -72 -128 -166 -172 -399 -188 -198
-14 -330 -46 -450 -112 -73 -40 -115 -76 -135 -113 -7 -14 -21 -68 -30 -120
-10 -52 -29 -120 -43 -150 -37 -80 -122 -157 -235 -212 -424 -210 -559 -274
-747 -353 -36 -15 -78 -33 -95 -41 -76 -34 -422 -163 -630 -235 -254 -88 -263
-90 -455 -150 -233 -72 -263 -93 -468 -327 -40 -46 -87 -86 -130 -112 -72 -42
-199 -90 -240 -90 -14 0 -114 29 -221 64 -254 83 -401 129 -476 151 -33 9 -87
26 -120 36 -173 53 -479 130 -507 127 -25 -2 -2 -11 92 -37 69 -18 143 -39
165 -46 22 -7 92 -27 155 -44 63 -18 151 -43 195 -57 44 -14 94 -29 110 -34
17 -4 102 -31 190 -59 88 -29 189 -61 225 -72 36 -11 79 -27 96 -34 64 -29
144 -20 271 31 135 54 202 106 303 233 122 154 188 193 480 281 95 29 170 53
210 67 8 3 73 25 144 49 124 42 299 106 341 123 11 5 49 20 85 33 209 80 239
92 430 178 47 21 119 53 160 70 41 18 187 89 325 158 359 180 397 220 446 465
9 50 26 101 39 120 32 46 139 111 225 136 111 33 149 40 255 50 63 6 140 14
170 17 206 21 313 115 369 322 29 107 10 146 -97 195 -62 28 -258 77 -308 77
-17 0 -55 -8 -85 -19 -59 -20 -73 -27 -319 -153 -241 -123 -361 -157 -451
-127 -202 68 8 295 431 466 98 39 130 58 130 76 0 18 -45 59 -173 157 -118 90
-185 173 -207 260 -13 49 -7 169 10 215 8 20 8 31 0 39 -7 7 -81 13 -185 17
-249 8 -254 16 -153 217 79 157 79 158 -57 228 -141 72 -388 230 -582 371 -44
33 -156 112 -318 226 -45 32 -193 129 -245 162 -108 69 -304 166 -439 219 -87
34 -213 68 -357 95 -66 12 -2025 17 -2037 4z"/>
<path d="M4690 4283 c-132 -5 -329 -35 -430 -67 -104 -32 -229 -106 -285 -168
-97 -107 -108 -250 -30 -378 43 -71 86 -108 180 -156 94 -48 260 -84 445 -97
35 -2 35 -2 38 -56 2 -37 -1 -57 -10 -62 -7 -5 -46 -9 -86 -9 -58 0 -74 -3
-79 -16 -8 -22 22 -44 61 -44 17 0 46 -9 64 -20 l32 -20 0 -100 0 -99 -30 -16
c-16 -8 -42 -15 -58 -15 -16 0 -37 -9 -47 -20 -17 -19 -17 -20 7 -29 14 -5 43
-9 64 -9 21 0 44 0 50 -1 12 -1 26 -280 17 -336 -8 -53 -32 -74 -97 -85 -54
-9 -69 -17 -79 -43 -1 -5 -95 1 -207 12 -429 44 -647 52 -1328 50 -353 -1
-645 0 -648 3 -2 3 26 32 63 64 37 32 95 83 128 114 78 71 200 179 245 216 19
16 82 72 140 124 58 52 121 107 140 122 30 24 32 28 16 34 -25 9 -65 -16 -156
-96 -41 -37 -88 -78 -104 -91 -16 -13 -34 -29 -40 -34 -26 -24 -193 -169 -316
-275 -74 -63 -159 -138 -189 -165 -31 -28 -89 -77 -129 -110 -39 -32 -69 -62
-65 -66 11 -10 2066 -40 2913 -42 660 -2 692 -1 865 21 99 12 225 27 280 32
55 6 111 13 124 16 14 3 72 9 130 14 59 5 165 16 236 25 72 9 177 20 235 25
58 5 119 12 135 15 17 3 71 9 120 14 50 6 153 17 230 26 242 27 417 46 505 54
215 21 500 56 500 62 0 7 -4 9 -185 94 -142 67 -195 86 -195 68 0 -6 34 -43
76 -83 42 -39 74 -74 71 -76 -2 -2 -134 -9 -293 -14 -1132 -39 -1839 -112
-2142 -221 -56 -20 -103 -31 -132 -30 -227 9 -346 5 -379 -11 -18 -10 -36 -16
-40 -14 -11 7 -274 64 -326 71 -123 16 -71 25 150 25 423 0 657 19 840 67 81
22 213 86 262 127 52 45 111 161 119 235 4 31 11 65 17 75 7 15 5 23 -10 35
-11 9 -31 38 -44 64 -44 92 -140 154 -310 203 -145 41 -249 78 -250 88 0 5 33
18 73 28 40 10 106 34 147 53 l73 35 239 0 c228 0 239 1 239 19 0 12 -10 21
-27 26 -101 24 -128 54 -317 360 -54 88 -115 186 -135 219 -20 32 -41 67 -47
77 -6 11 -20 30 -31 42 -10 12 -31 41 -46 65 -16 23 -40 48 -55 53 -35 14
-196 7 -215 -10 -12 -9 -48 -10 -164 -2 -160 11 -409 18 -513 14z m741 -42
c-7 -5 -10 -14 -6 -20 4 -7 4 -20 0 -29 -7 -14 -9 -13 -15 8 -7 26 4 50 24 50
6 0 5 -4 -3 -9z m119 -3 c0 -4 5 -7 12 -5 6 1 14 -7 16 -17 2 -11 14 -27 26
-37 11 -9 18 -20 14 -24 -8 -9 -48 17 -48 32 0 18 -19 26 -35 13 -8 -7 -15 -7
-19 -1 -4 5 -2 12 4 16 17 10 11 23 -8 19 -9 -3 -28 -1 -42 5 -21 8 -16 9 28
8 28 0 52 -4 52 -9z m-460 -8 c0 -5 5 -10 11 -10 5 0 7 5 4 10 -3 6 0 10 8 10
20 0 30 -29 14 -36 -19 -7 -69 14 -62 26 8 13 25 13 25 0z m80 0 c0 -5 -2 -10
-4 -10 -3 0 -8 5 -11 10 -3 6 -1 10 4 10 6 0 11 -4 11 -10z m-682 -14 c-20 -6
-43 -17 -50 -24 -6 -6 -22 -12 -35 -12 -13 0 -23 -4 -23 -10 0 -16 -27 -11
-34 6 -10 27 4 37 45 30 22 -4 39 -2 39 3 0 10 22 15 70 18 18 1 14 -2 -12
-11z m792 4 c0 -13 -20 -13 -40 0 -12 8 -9 10 13 10 15 0 27 -4 27 -10z m-294
-26 c37 -8 80 -22 96 -30 41 -21 108 -84 108 -101 0 -13 -72 -109 -95 -125
-27 -20 -38 -8 -32 37 8 55 -6 65 -93 65 -96 0 -100 -4 -100 -115 0 -63 -4
-96 -12 -101 -7 -4 -67 -7 -135 -5 -158 3 -203 -4 -244 -39 -29 -24 -32 -30
-20 -44 7 -9 25 -16 39 -16 44 0 90 -22 102 -49 12 -26 15 -159 5 -170 -10 -9
-132 27 -189 55 -69 35 -89 55 -128 133 -30 61 -33 73 -33 161 0 81 4 102 25
143 48 95 124 149 270 193 63 19 99 23 222 23 99 1 168 -4 214 -15z m401 -6
c-3 -8 -6 -5 -6 6 -1 11 2 17 5 13 3 -3 4 -12 1 -19z m-199 5 c-22 -5 -24 -23
-3 -23 8 0 15 -4 15 -10 0 -5 7 -7 15 -4 9 4 15 0 15 -10 0 -9 -7 -16 -15 -16
-8 0 -15 4 -15 10 0 5 -13 16 -30 25 -39 20 -38 32 3 32 17 0 24 -2 15 -4z
m68 -30 c-11 -11 -19 6 -11 24 8 17 8 17 12 0 3 -10 2 -21 -1 -24z m-988 5
c-3 -7 -15 -15 -28 -16 -13 -2 -29 -10 -36 -17 -11 -11 -11 -15 2 -26 14 -12
14 -14 -1 -26 -14 -10 -23 -9 -47 3 -17 9 -31 14 -32 12 -37 -57 -37 -58 -16
-58 14 0 20 7 20 21 0 26 24 20 28 -8 4 -26 -26 -35 -73 -22 -31 9 -49 29 -26
29 5 0 23 14 40 31 28 28 32 29 47 15 8 -9 20 -16 25 -16 6 0 3 7 -5 16 -20
20 -20 25 1 17 10 -4 14 -2 9 5 -3 6 3 13 14 17 11 3 20 11 20 17 0 6 9 8 20
5 11 -3 20 -1 20 4 0 5 5 9 11 9 6 0 9 -6 7 -12z m1237 -8 c-3 -5 -2 -10 4
-10 5 0 12 6 15 13 3 6 3 1 0 -13 -6 -24 -6 -24 13 -7 11 9 25 17 31 17 18 0
14 -47 -4 -54 -8 -3 -13 -10 -10 -15 3 -5 -4 -4 -17 2 -32 15 -61 77 -36 77 5
0 7 -4 4 -10z m-1185 -15 c11 -13 8 -15 -19 -15 -30 0 -39 9 -24 23 11 11 30
8 43 -8z m1035 -11 c14 -6 12 -11 -11 -35 -40 -42 -58 -38 -36 6 18 37 21 39
47 29z m284 -26 c0 -28 -2 -30 -9 -13 -12 28 -12 45 0 45 6 0 10 -15 9 -32z
m-1383 -42 c-20 -24 -36 -49 -36 -55 0 -13 -50 -9 -51 4 0 6 8 12 17 14 18 3
49 29 49 41 0 11 30 39 44 40 8 0 -2 -18 -23 -44z m1224 -18 c19 -29 42 -68
52 -86 10 -18 37 -59 58 -91 22 -32 40 -68 40 -80 0 -18 -6 -21 -45 -21 -39 0
-47 3 -55 25 l-10 25 -139 0 c-88 0 -142 4 -146 11 -7 10 31 73 67 112 9 11
38 50 65 88 26 38 55 69 64 69 9 0 31 -24 49 -52z m202 11 c6 -4 8 -15 6 -25
-3 -15 -6 -14 -21 9 -10 15 -15 33 -11 39 6 9 9 8 12 -2 3 -8 9 -18 14 -21z
m-405 -17 c1 -22 -2 -27 -23 -28 -29 -2 -29 0 -6 31 22 31 27 31 29 -3z m356
8 c9 -11 17 -27 17 -36 0 -11 -9 -6 -30 16 -16 18 -30 34 -30 36 0 12 28 1 43
-16z m-48 -38 c-6 -7 -35 18 -35 31 0 5 9 2 20 -8 11 -10 18 -20 15 -23z
m-1531 9 c3 -5 -1 -12 -10 -15 -9 -4 -14 -13 -10 -21 3 -8 -5 -26 -19 -39 -15
-15 -22 -31 -19 -40 4 -9 0 -18 -10 -22 -9 -3 -16 -12 -16 -20 0 -8 -4 -14 -9
-14 -9 0 -3 37 9 55 3 6 12 30 20 55 17 56 49 86 64 61z m1690 -70 c-2 -2 -10
2 -19 9 -15 13 -20 5 -16 -27 3 -18 -16 -16 -23 2 -3 8 -12 15 -21 15 -8 0
-15 4 -15 10 0 5 10 9 23 7 13 -1 23 4 23 13 1 8 2 21 3 29 0 8 12 -1 24 -20
13 -19 22 -36 21 -38z m-139 49 c-3 -5 3 -10 15 -10 14 0 21 -6 19 -17 -3 -30
0 -37 26 -67 25 -29 34 -76 15 -76 -6 0 -8 12 -4 28 4 20 3 23 -5 12 -8 -12
-12 -9 -22 18 -6 17 -15 32 -20 32 -5 0 -9 9 -9 20 0 10 -7 23 -17 28 -15 9
-13 42 2 42 4 0 3 -4 0 -10z m-375 -25 c-8 -9 -8 -15 0 -20 6 -3 8 -11 4 -16
-3 -5 -9 -7 -14 -4 -5 3 -13 -7 -17 -22 l-7 -28 -7 25 c-11 39 -10 52 3 44 7
-5 8 -3 4 5 -5 7 0 18 10 26 22 16 40 9 24 -10z m-1032 -25 c2 -19 -2 -36 -9
-41 -22 -13 -31 2 -14 21 15 17 15 19 -1 28 -9 5 -14 14 -9 21 12 21 30 6 33
-29z m-130 -25 c-6 -14 -19 -25 -30 -25 -24 0 -23 8 4 31 29 26 40 24 26 -6z
m62 15 c0 -5 -7 -13 -16 -18 -19 -10 -25 -41 -12 -64 6 -13 5 -18 -7 -18 -8 0
-15 5 -15 10 0 6 -8 10 -17 10 -17 1 -17 1 0 11 9 5 17 14 17 19 0 23 21 60
35 60 8 0 15 -4 15 -10z m1050 -25 c0 -8 -4 -15 -10 -15 -5 0 -10 7 -10 15 0
8 5 15 10 15 6 0 10 -7 10 -15z m610 -27 c0 -14 -18 -9 -24 8 -11 28 -6 39 9
20 8 -11 15 -23 15 -28z m-1626 6 c12 -5 13 -9 3 -19 -14 -15 -27 -10 -27 11
0 16 2 16 24 8z m986 -9 c0 -8 -7 -15 -16 -15 -14 0 -14 3 -4 15 7 8 14 15 16
15 2 0 4 -7 4 -15z m30 -21 c0 -8 -5 -12 -10 -9 -6 4 -8 11 -5 16 9 14 15 11
15 -7z m617 -26 c-15 -11 -16 -18 -6 -48 28 -83 40 -100 73 -100 14 0 17 5 12
25 -4 14 -2 25 4 25 9 0 11 -7 14 -50 1 -8 5 -14 9 -12 11 4 62 -67 72 -99 6
-21 3 -19 -24 11 -23 27 -30 31 -31 17 0 -10 5 -27 10 -38 7 -13 7 -19 0 -19
-5 0 -10 -5 -10 -10 0 -7 6 -7 19 0 24 12 61 13 61 1 0 -5 -8 -7 -19 -4 -10 3
-22 0 -25 -6 -4 -6 -2 -11 4 -11 8 0 8 -6 0 -20 -6 -11 -14 -19 -18 -19 -4 1
-14 0 -22 -1 -8 -2 5 -6 30 -10 38 -6 32 -7 -40 -9 -47 -1 -96 -4 -109 -8 -17
-4 -22 -3 -17 5 4 7 27 12 52 12 41 0 45 2 42 23 -2 13 -9 21 -18 20 -10 -2
-16 7 -17 29 -1 17 -9 38 -18 48 -17 19 -20 46 -5 55 6 3 10 1 10 -5 0 -6 5
-8 11 -5 5 4 19 -1 29 -10 19 -17 50 -15 50 4 0 12 -27 28 -55 32 -11 2 -23 9
-27 14 -5 6 -15 5 -29 -3 -20 -13 -21 -12 -14 5 21 50 19 54 -16 52 -19 -2
-47 -2 -64 -1 -23 2 -27 4 -15 12 8 5 24 7 36 4 17 -4 23 0 28 20 3 13 2 36
-4 51 -12 33 -12 35 1 35 5 0 7 -4 4 -10 -3 -5 -1 -10 5 -10 7 0 14 9 17 21 4
14 9 17 16 10 8 -8 6 -15 -6 -23z m-1782 8 c12 -12 12 -16 1 -25 -11 -9 -15
-6 -18 14 -6 29 -2 31 17 11z m-25 -48 c0 -5 -7 -8 -15 -8 -10 0 -15 10 -15
27 0 26 1 26 15 7 8 -10 15 -22 15 -26z m1160 37 c0 -20 -36 -55 -57 -55 -13
0 -21 -4 -18 -10 3 -5 -1 -10 -9 -10 -20 0 -20 20 -1 46 13 17 14 17 15 2 0
-25 16 -22 37 7 17 22 33 32 33 20z m-1073 -27 c-3 -8 -6 -5 -6 6 -1 11 2 17
5 13 3 -3 4 -12 1 -19z m93 2 c0 -5 -11 -10 -24 -10 -14 0 -28 5 -31 10 -4 6
7 10 24 10 17 0 31 -4 31 -10z m1550 -5 c0 -8 -4 -15 -10 -15 -5 0 -10 7 -10
15 0 8 5 15 10 15 6 0 10 -7 10 -15z m120 6 c0 -5 3 -17 7 -26 5 -16 4 -15
-15 1 -26 22 -28 34 -7 34 8 0 15 -4 15 -9z m-1641 -53 c1 -21 -27 -50 -41
-42 -7 5 -5 11 5 19 10 7 17 27 18 46 0 28 2 31 9 14 5 -11 9 -28 9 -37z
m1547 25 c-10 -10 -19 5 -10 18 6 11 8 11 12 0 2 -7 1 -15 -2 -18z m-1621 -21
c3 -7 3 -18 -1 -23 -9 -15 -34 -10 -34 7 0 8 -4 12 -10 9 -5 -3 -10 -2 -10 4
0 21 47 24 55 3z m-121 0 c3 -5 2 -19 -1 -31 -4 -17 -8 -19 -14 -9 -12 18 -11
48 0 48 6 0 12 -4 15 -8z m1046 -27 c-13 -16 -40 -20 -40 -7 0 14 12 22 33 22
16 0 17 -3 7 -15z m-383 -10 c-14 -13 -19 -13 -44 0 l-28 15 43 0 c38 0 42 -2
29 -15z m76 8 c-7 -2 -19 -2 -25 0 -7 3 -2 5 12 5 14 0 19 -2 13 -5z m119 -5
c-7 -7 -12 -29 -12 -50 0 -47 -16 -50 -28 -5 -7 24 -6 35 4 43 8 6 11 14 7 17
-3 4 4 7 17 7 19 0 21 -3 12 -12z m-825 -38 c-2 -34 -3 -35 -21 -18 -16 15 -9
48 10 48 8 0 12 -11 11 -30z m669 15 c-3 -8 -2 -15 3 -15 10 0 34 -51 27 -57
-9 -10 -26 9 -26 28 0 11 -6 19 -12 17 -14 -3 -18 3 -18 27 0 8 7 15 16 15 10
0 14 -6 10 -15z m341 -17 c-13 -18 -27 -41 -30 -51 -5 -13 -13 -16 -32 -11
-16 4 -25 2 -25 -6 0 -6 -6 -10 -12 -7 -20 6 -15 32 6 32 22 0 35 25 14 26
-13 0 79 48 95 49 4 0 -3 -15 -16 -32z m-294 15 c-7 -2 -19 -2 -25 0 -7 3 -2
5 12 5 14 0 19 -2 13 -5z m-527 -28 c8 -32 -2 -58 -11 -27 -4 12 -11 22 -16
22 -5 0 -6 7 -3 15 9 23 23 18 30 -10z m-56 0 c-7 -8 -10 -25 -6 -38 5 -20 2
-23 -17 -23 -44 2 -34 50 13 69 23 8 23 8 10 -8z m990 -7 c0 6 9 12 20 12 11
0 20 -7 20 -16 0 -8 -4 -12 -10 -9 -5 3 -10 -1 -10 -9 0 -9 -7 -16 -15 -16
-18 0 -14 -68 5 -80 9 -6 9 -9 0 -15 -22 -14 -44 22 -42 67 4 61 12 85 23 67
6 -10 9 -11 9 -1z m120 -3 c0 -8 -6 -15 -14 -15 -20 0 -29 17 -14 23 22 9 28
7 28 -8z m265 -9 c9 -9 15 -23 12 -31 -4 -8 1 -16 11 -18 15 -4 15 -5 -1 -6
-9 0 -22 10 -28 23 -6 13 -25 30 -42 38 l-32 16 32 -3 c17 -1 39 -9 48 -19z
m32 18 c-3 -3 -12 -4 -19 -1 -8 3 -5 6 6 6 11 1 17 -2 13 -5z m83 -4 c0 -5 7
-10 15 -10 17 0 45 -50 45 -80 0 -11 -4 -20 -10 -20 -5 0 -10 11 -10 25 0 26
-39 75 -60 75 -13 0 -13 -23 1 -37 13 -13 4 -33 -16 -33 -7 0 -16 -8 -19 -17
-3 -10 -3 1 -1 25 4 32 2 44 -10 48 -8 3 -13 10 -10 15 3 4 13 5 22 2 11 -4
14 -3 9 5 -5 8 1 12 18 12 14 0 26 -4 26 -10z m-1580 -25 c0 -16 -27 -32 -36
-22 -7 6 17 36 29 37 4 0 7 -7 7 -15z m1238 -58 c1 -40 -2 -67 -8 -67 -5 0
-10 19 -11 43 0 39 -1 40 -12 17 -6 -14 -12 -26 -13 -28 -1 -1 -11 -4 -23 -7
-16 -3 -21 1 -21 16 0 20 -24 26 -35 9 -7 -12 -25 -4 -25 12 0 5 7 7 16 4 12
-4 15 -2 10 9 -4 13 -2 14 14 5 27 -14 40 -12 34 5 -4 8 -2 15 4 15 6 0 12 -6
15 -12 3 -9 9 -7 20 7 8 10 12 26 9 33 -3 10 0 13 9 10 10 -3 15 -25 17 -71z
m110 59 c52 -27 67 -53 66 -117 -1 -51 -5 -64 -29 -89 -35 -37 -104 -66 -186
-79 -67 -11 -202 -15 -211 -6 -3 3 -3 17 0 30 6 32 18 34 175 37 101 2 130 6
137 18 6 9 8 51 5 98 -6 76 -1 122 11 122 3 0 17 -6 32 -14z m-1236 -44 c-6
-2 -20 -12 -33 -23 -28 -24 -33 -24 -63 6 -22 22 -23 25 -6 25 10 0 29 -4 43
-9 27 -11 40 -5 52 24 8 20 8 20 13 0 2 -10 0 -21 -6 -23z m62 13 c-4 -10 4
-19 22 -26 16 -6 24 -13 18 -16 -6 -2 -22 1 -36 6 -20 8 -25 15 -21 35 3 14 9
23 14 21 4 -3 6 -12 3 -20z m570 16 c3 -5 -3 -20 -14 -32 -16 -19 -21 -21 -29
-10 -13 20 -1 51 20 51 10 0 20 -4 23 -9z m-127 -33 c-2 -12 -9 -24 -15 -26
-13 -4 -15 8 -6 32 9 24 24 19 21 -6z m238 2 c3 -5 -1 -10 -9 -10 -9 0 -16 5
-16 10 0 6 4 10 9 10 6 0 13 -4 16 -10z m55 1 c0 -21 -13 -41 -26 -41 -19 0
-18 -29 1 -36 8 -4 15 -12 15 -19 0 -7 12 -22 27 -33 l27 -20 -34 3 c-19 2
-77 3 -129 4 l-95 1 22 20 c12 12 22 25 22 30 0 6 7 10 15 10 17 0 20 -16 4
-26 -7 -4 -8 -9 0 -17 7 -7 15 -6 26 3 8 7 15 8 15 3 0 -5 12 -10 28 -11 23
-1 25 0 9 9 -18 10 -18 11 0 25 17 13 16 15 -11 37 -23 18 -26 26 -16 32 9 5
15 4 18 -3 6 -20 29 -13 46 13 16 25 36 33 36 16z m-240 -15 c0 -8 -6 -16 -14
-19 -10 -4 -12 0 -9 14 6 22 23 26 23 5z m932 -52 c-6 -11 -8 -5 -6 23 3 49 6
55 11 21 2 -15 0 -35 -5 -44z m-912 21 c-7 -9 -15 -13 -17 -11 -7 7 7 26 19
26 6 0 6 -6 -2 -15z m-550 -4 c0 -5 3 -16 6 -24 4 -12 0 -14 -15 -10 -24 6
-29 43 -6 43 8 0 15 -4 15 -9z m145 -21 c12 -19 -12 -10 -31 11 -19 22 -19 22
3 10 12 -6 25 -16 28 -21z m1385 5 c0 -24 -46 -48 -67 -36 -18 11 -16 12 27
15 8 1 16 11 18 24 4 24 22 21 22 -3z m-883 -7 c-3 -8 -6 -5 -6 6 -1 11 2 17
5 13 3 -3 4 -12 1 -19z m258 12 c3 -5 1 -10 -4 -10 -6 0 -11 5 -11 10 0 6 2
10 4 10 3 0 8 -4 11 -10z m465 -9 c0 -11 8 -28 18 -37 16 -17 16 -18 0 -11
-19 7 -21 1 -22 -63 -1 -29 -5 -36 -24 -38 -21 -3 -22 -2 -11 16 10 16 10 24
1 35 -10 11 -9 20 3 43 8 16 15 39 15 52 0 12 5 22 10 22 6 0 10 -9 10 -19z
m-865 3 c13 -5 10 -10 -16 -26 -36 -22 -46 -19 -27 11 14 23 18 24 43 15z
m535 -30 c0 -21 -17 -17 -23 5 -3 14 -1 18 9 14 8 -3 14 -11 14 -19z m-985 6
c3 -5 -3 -10 -14 -10 -12 0 -21 5 -21 10 0 6 6 10 14 10 8 0 18 -4 21 -10z
m46 -5 c0 -5 -5 -11 -13 -13 -10 -3 -10 -1 1 6 11 8 10 11 -5 15 -16 5 -16 6
-1 4 10 -1 18 -6 18 -12z m84 9 c13 -5 11 -9 -11 -20 -14 -8 -36 -13 -48 -13
-20 1 -20 2 -1 6 11 3 24 11 28 19 9 16 10 16 32 8z m782 -10 c3 -8 -14 -10
-49 -9 -66 4 -70 5 -33 15 40 11 78 8 82 -6z m133 2 c0 -3 -4 -8 -10 -11 -5
-3 -10 -1 -10 4 0 6 5 11 10 11 6 0 10 -2 10 -4z m-846 -21 c8 -9 26 -15 38
-14 40 4 68 -1 68 -11 0 -13 -133 0 -142 14 -19 28 10 37 36 11z m816 -5 c0
-5 -2 -10 -4 -10 -3 0 -8 5 -11 10 -3 6 -1 10 4 10 6 0 11 -4 11 -10z m-45
-10 c3 -5 -1 -10 -9 -10 -9 0 -16 5 -16 10 0 6 4 10 9 10 6 0 13 -4 16 -10z
m75 0 c0 -5 -4 -10 -10 -10 -5 0 -10 5 -10 10 0 6 5 10 10 10 6 0 10 -4 10
-10z m695 0 c3 -5 1 -10 -4 -10 -6 0 -11 5 -11 10 0 6 2 10 4 10 3 0 8 -4 11
-10z m70 0 c4 -6 -7 -10 -27 -10 -25 0 -29 3 -18 10 19 13 37 13 45 0z m-565
-60 c0 -5 -5 -10 -11 -10 -5 0 -7 5 -4 10 3 6 8 10 11 10 2 0 4 -4 4 -10z
m-736 -38 c-1 -12 3 -22 7 -22 5 0 9 5 9 10 0 6 8 11 18 11 16 1 16 2 0 6 -28
7 -21 19 9 17 25 -1 27 -4 28 -42 0 -27 -4 -42 -12 -42 -7 0 -13 7 -13 15 0 8
-5 15 -11 15 -6 0 -9 -7 -5 -15 4 -13 -7 -15 -70 -15 -45 0 -73 4 -69 10 3 5
12 7 20 3 9 -3 15 1 15 11 0 9 6 16 13 16 8 0 19 12 26 26 13 30 37 27 35 -4z
m740 3 c-4 -8 -10 -15 -14 -15 -5 0 -17 -3 -27 -6 -10 -3 -4 3 12 15 36 25 36
25 29 6z m-96 -32 c-10 -2 -26 -2 -35 0 -10 3 -2 5 17 5 19 0 27 -2 18 -5z
m-98 -28 c0 -9 -6 -12 -15 -9 -8 4 -12 10 -9 15 8 14 24 10 24 -6z m-55 -5 c4
-7 -3 -8 -22 -4 -38 9 -42 14 -10 14 14 0 29 -5 32 -10z m-595 -61 c0 -5 -18
-9 -41 -9 -22 0 -38 4 -35 9 3 5 22 9 41 9 19 0 35 -4 35 -9z m186 -2 c4 -3
-6 -9 -20 -13 -25 -6 -26 -8 -11 -24 14 -15 14 -22 5 -40 -8 -14 -10 -57 -8
-119 4 -86 2 -97 -13 -98 -17 -2 -20 12 -7 33 8 12 -22 84 -34 84 -4 0 -8 -4
-8 -10 0 -5 -7 -10 -15 -10 -17 0 -21 35 -5 45 6 3 10 1 10 -4 0 -6 11 -10 25
-9 24 2 25 6 25 60 0 47 -3 58 -16 58 -12 0 -15 -6 -11 -21 6 -24 -21 -39 -34
-18 -5 9 0 22 16 39 33 34 32 40 -10 40 -19 0 -35 4 -35 8 0 10 137 9 146 -1z
m61 7 c-3 -3 -12 -4 -19 -1 -8 3 -5 6 6 6 11 1 17 -2 13 -5z m293 -4 c11 -7 6
-10 -20 -10 -26 0 -31 3 -20 10 8 5 17 10 20 10 3 0 12 -5 20 -10z m57 -6 c-3
-3 -12 -4 -19 -1 -8 3 -5 6 6 6 11 1 17 -2 13 -5z m121 -4 c17 0 32 -5 32 -11
0 -12 -106 -2 -130 13 -10 6 -2 8 25 4 22 -3 55 -6 73 -6z m-738 -20 c0 -5 -4
-10 -10 -10 -5 0 -10 5 -10 10 0 6 5 10 10 10 6 0 10 -4 10 -10z m869 -4 c8
-10 23 -13 45 -9 19 3 42 0 52 -5 15 -9 4 -10 -46 -8 -74 4 -128 14 -136 27
-9 15 73 10 85 -5z m-188 -53 c30 -23 95 -77 146 -121 118 -100 165 -133 205
-141 33 -7 33 -7 31 -61 -2 -85 -11 -113 -59 -173 -66 -84 -164 -134 -309
-156 -118 -19 -412 -26 -430 -11 -12 10 -15 43 -15 201 0 213 -2 209 80 201
27 -2 57 1 70 8 20 11 21 14 8 27 -9 8 -35 19 -59 24 -85 19 -89 25 -89 145
l0 106 184 -4 184 -4 53 -41z m-644 20 c-2 -10 -8 -26 -12 -36 -5 -13 -3 -16
7 -12 12 5 14 -4 10 -52 -2 -32 -9 -63 -14 -70 -5 -6 -6 -23 -2 -37 5 -19 2
-26 -9 -26 -12 0 -15 19 -15 113 0 63 4 117 10 125 15 18 31 15 25 -5z m1070
-29 c8 -8 10 -14 4 -14 -5 0 -13 5 -16 10 -3 6 -13 10 -22 10 -13 0 -13 -3 -3
-15 10 -12 9 -15 -8 -15 -25 0 -49 26 -30 33 8 3 6 6 -5 6 -10 1 -16 5 -13 10
8 12 74 -6 93 -25z m-120 -10 c-3 -3 -12 -4 -19 -1 -8 3 -5 6 6 6 11 1 17 -2
13 -5z m-157 -29 c7 -9 8 -15 2 -15 -5 0 -12 7 -16 15 -3 8 -4 15 -2 15 2 0 9
-7 16 -15z m63 -27 c-15 -4 -29 -5 -32 -3 -2 3 1 5 7 5 7 0 12 5 12 10 0 6 -7
10 -16 10 -8 0 -13 4 -9 9 3 6 18 3 35 -7 l29 -17 -26 -7z m137 32 c0 -5 -4
-10 -10 -10 -5 0 -10 5 -10 10 0 6 5 10 10 10 6 0 10 -4 10 -10z m122 -20
c-12 -12 -22 -25 -22 -30 0 -6 -7 -10 -15 -10 -8 0 -15 -5 -15 -10 0 -6 16
-10 38 -8 33 3 37 0 40 -22 2 -14 8 -29 13 -34 12 -13 11 -26 -1 -26 -5 0 -10
8 -11 18 0 12 -2 13 -6 3 -3 -7 -14 -22 -24 -32 -19 -19 -20 -19 -25 11 -4 16
-13 35 -20 41 -8 6 -14 22 -14 35 0 15 -6 24 -15 24 -8 0 -15 5 -15 10 0 6 7
10 15 10 8 0 15 -5 15 -11 0 -5 15 4 33 20 17 17 36 31 41 31 6 0 0 -9 -12
-20z m73 0 c3 -5 -3 -10 -14 -10 -12 0 -21 5 -21 10 0 6 6 10 14 10 8 0 18 -4
21 -10z m-275 -30 c0 -5 -7 -10 -17 -10 -9 0 -13 -3 -10 -7 4 -3 19 -6 35 -5
31 1 55 -27 46 -53 -8 -19 -33 -20 -40 -1 -3 8 -24 27 -46 42 -39 28 -40 29
-17 35 36 10 49 10 49 -1z m290 1 c0 -5 -6 -11 -12 -14 -7 -2 -1 -2 15 0 31 5
49 -22 26 -39 -11 -8 -11 -9 2 -5 9 3 20 2 25 -1 16 -12 37 -60 30 -70 -3 -6
-2 -13 4 -17 16 -10 12 -45 -5 -45 -8 0 -16 6 -16 13 -1 6 -3 19 -4 27 -1 8
-3 27 -4 43 -1 29 -27 38 -37 12 -4 -8 -15 -15 -26 -15 -16 0 -18 3 -9 14 15
17 -1 61 -24 70 -14 5 -15 9 -5 21 14 17 40 20 40 6z m-1111 -75 c10 -12 7
-18 -14 -32 -14 -9 -28 -14 -32 -10 -3 3 -1 6 5 6 7 0 12 7 12 15 0 21 -38 19
-43 -2 -3 -11 -5 -7 -6 10 -1 24 2 27 33 27 18 0 39 -6 45 -14z m903 -31 c0
-5 -5 -11 -11 -13 -6 -2 -11 4 -11 13 0 9 5 15 11 13 6 -2 11 -8 11 -13z m253
-35 c3 -5 2 -10 -4 -10 -5 0 -13 5 -16 10 -3 6 -2 10 4 10 5 0 13 -4 16 -10z
m-1254 -39 c4 -123 0 -311 -7 -322 -4 -8 -7 -28 -5 -45 1 -18 -2 -35 -8 -39
-19 -11 -12 -24 17 -28 15 -2 -4 -4 -43 -4 -66 0 -68 1 -39 13 55 23 56 26 56
253 0 174 3 209 14 204 8 -3 14 -17 15 -32z m1153 27 c37 -16 41 -42 14 -79
-17 -23 -20 -33 -10 -36 10 -4 10 -8 1 -19 -23 -28 -39 -16 -39 30 0 44 13 68
23 44 3 -7 6 -3 6 9 1 16 -3 21 -14 17 -11 -5 -15 1 -15 20 0 30 0 30 34 14z
m-1019 -39 c4 -11 8 -79 10 -152 2 -101 -1 -140 -12 -165 -22 -47 -32 -48 -19
0 9 32 8 42 -1 45 -15 5 -17 39 -3 48 14 9 12 55 -2 55 -10 0 -10 2 0 9 15 9
15 158 1 167 -15 9 -10 24 6 18 8 -3 17 -15 20 -25z m1124 -22 c-9 -32 -1
-119 12 -128 5 -3 -4 -20 -20 -39 l-28 -34 -5 27 c-4 19 -1 27 9 27 10 0 13 6
9 16 -4 9 -1 23 5 30 9 11 8 18 -1 29 -8 10 -10 27 -5 52 8 39 11 51 14 68 1
6 5 4 10 -4 5 -8 5 -27 0 -44z m-1205 27 c26 -10 19 -32 -9 -30 -14 0 -25 2
-25 3 0 5 13 33 15 33 2 0 10 -3 19 -6z m1249 -78 c-10 -45 -29 -48 -25 -3 3
46 11 62 23 50 5 -5 6 -25 2 -47z m-88 4 c-3 -5 -11 -10 -16 -10 -6 0 -7 5 -4
10 3 6 11 10 16 10 6 0 7 -4 4 -10z m-95 -66 c0 -15 6 -24 15 -24 8 0 15 5 15
10 0 6 5 10 11 10 5 0 8 -4 5 -9 -3 -5 0 -14 8 -20 16 -14 9 -61 -10 -61 -24
0 -15 -20 9 -21 14 0 17 -2 7 -6 -8 -3 -20 -12 -27 -20 -13 -17 -48 -10 -38 8
4 6 13 8 21 5 8 -3 14 -1 14 4 0 6 -8 10 -17 11 -11 0 -13 3 -5 6 6 2 10 8 7
13 -3 5 4 12 15 15 29 9 20 26 -21 40 -34 12 -46 33 -35 61 8 22 26 7 26 -22z
m-1052 -141 c-15 -19 -31 -5 -24 22 4 14 0 28 -9 35 -8 7 -15 20 -14 29 0 12
2 12 8 -3 7 -19 8 -18 15 5 7 21 9 19 21 -26 10 -35 11 -53 3 -62z m1022 87
c0 -6 -9 -21 -20 -32 -15 -16 -17 -25 -9 -32 8 -8 13 -7 16 2 8 20 32 14 26
-7 -5 -19 -48 -26 -59 -10 -3 5 -10 7 -15 4 -18 -12 -8 21 11 35 11 8 20 22
20 32 0 10 7 18 15 18 8 0 15 -5 15 -10z m-92 -112 c-2 -12 -9 -23 -16 -26 -8
-2 -10 2 -5 14 4 12 3 15 -5 10 -8 -5 -10 -2 -6 8 9 25 36 20 32 -6z m-930
-33 c-3 -3 -9 2 -12 12 -6 14 -5 15 5 6 7 -7 10 -15 7 -18z m887 5 c3 -5 -3
-10 -14 -10 -12 0 -21 5 -21 10 0 6 6 10 14 10 8 0 18 -4 21 -10z m74 1 c11
-7 10 -11 -7 -20 -11 -6 -31 -11 -44 -10 -15 0 -18 3 -8 6 8 3 19 12 23 19 9
16 17 17 36 5z m-879 -31 c0 -5 -2 -10 -4 -10 -3 0 -8 5 -11 10 -3 6 -1 10 4
10 6 0 11 -4 11 -10z m790 -10 c0 -5 -12 -10 -26 -10 -14 0 -23 4 -19 10 3 6
15 10 26 10 10 0 19 -4 19 -10z m-112 -13 c-16 -6 -28 -14 -28 -19 0 -4 -12
-8 -27 -8 -33 0 -22 12 25 26 47 15 66 15 30 1z m-663 -27 c16 -18 16 -20 2
-20 -9 0 -21 8 -27 18 -8 11 -13 13 -16 5 -3 -7 -11 -10 -19 -7 -7 3 -16 1
-20 -5 -9 -16 -35 -13 -35 3 0 14 22 21 76 25 11 0 29 -8 39 -19z m568 3 c-7
-2 -19 -2 -25 0 -7 3 -2 5 12 5 14 0 19 -2 13 -5z m-80 -10 c-7 -2 -21 -2 -30
0 -10 3 -4 5 12 5 17 0 24 -2 18 -5z"/>
<path d="M4378 4193 c7 -3 16 -2 19 1 4 3 -2 6 -13 5 -11 0 -14 -3 -6 -6z"/>
<path d="M5857 3602 c-10 -2 -17 -7 -15 -10 18 -37 45 -72 56 -72 18 0 15 55
-5 72 -10 8 -26 13 -36 10z"/>
<path d="M4125 3580 c3 -5 8 -10 11 -10 2 0 4 5 4 10 0 6 -5 10 -11 10 -5 0
-7 -4 -4 -10z"/>
<path d="M4945 3490 c-4 -6 -4 -10 -1 -10 2 0 11 -3 20 -6 9 -3 16 -2 16 4 0
14 -28 23 -35 12z"/>
<path d="M5800 2988 c1 -31 1 -32 15 -13 17 21 15 37 -3 43 -8 2 -12 -8 -12
-30z"/>
<path d="M5620 3022 c0 -5 7 -13 16 -16 10 -4 14 -1 12 6 -5 15 -28 23 -28 10z"/>
<path d="M6075 2166 c-70 -22 -125 -56 -145 -89 -29 -48 -25 -81 15 -126 63
-70 215 -106 338 -81 252 52 266 235 22 299 -54 15 -181 13 -230 -3z"/>
<path d="M4755 2141 c-92 -24 -165 -89 -165 -146 0 -100 181 -182 344 -154
125 21 203 74 213 146 4 33 0 45 -23 72 -47 57 -122 84 -239 87 -55 2 -113 -1
-130 -5z"/>
<path d="M5940 1824 c-47 -2 -95 -6 -108 -9 -44 -10 -114 -87 -202 -221 -116
-175 -111 -173 -174 -99 -103 122 -241 252 -294 279 -53 27 -54 27 -285 28
-249 1 -299 -6 -527 -67 -52 -15 -133 -36 -180 -48 l-85 -23 -9 -42 c-15 -73
-13 -73 239 -17 153 34 297 46 310 25 14 -23 6 -71 -22 -126 -29 -59 -176
-287 -201 -313 -23 -24 0 -30 113 -33 l110 -3 5 -285 c5 -265 6 -287 25 -312
19 -26 23 -27 90 -22 58 5 74 10 93 31 23 25 23 31 22 197 -3 338 -1 386 15
386 12 0 15 -43 17 -284 4 -340 -1 -326 113 -326 110 0 105 -17 105 322 0 251
2 287 16 292 9 3 62 6 118 6 57 0 105 3 109 6 5 5 -14 35 -147 228 -26 38 -58
91 -72 118 -21 41 -22 49 -9 54 22 9 58 -18 165 -122 226 -221 255 -219 455
21 81 98 111 125 139 125 19 0 29 -7 36 -26 6 -15 10 -219 10 -508 0 -455 1
-484 18 -499 15 -14 40 -17 120 -17 93 0 102 2 116 22 14 19 16 65 16 296 0
214 3 273 13 270 9 -4 13 -74 17 -287 4 -236 7 -283 20 -291 8 -5 61 -10 117
-10 94 0 103 2 117 22 14 20 16 84 16 502 0 525 2 545 54 578 27 16 44 18 121
14 50 -2 124 -11 165 -20 41 -8 129 -27 195 -40 139 -29 168 -31 184 -12 15
18 2 76 -19 87 -8 4 -51 14 -95 22 -44 9 -118 25 -165 37 -47 12 -150 37 -228
56 l-144 35 -271 3 c-150 2 -310 2 -357 0z"/>
<path d="M1740 1334 c-38 -9 -252 -26 -420 -34 -190 -8 -228 -16 -267 -52 -48
-45 -19 -80 82 -98 65 -11 221 -22 575 -40 124 -6 250 -18 280 -26 65 -17 119
-19 104 -4 -28 28 -180 43 -704 70 -257 13 -321 29 -305 72 12 30 61 41 210
49 83 4 231 16 330 26 99 9 218 18 265 18 144 0 399 -38 478 -70 l35 -15 -7
-100 c-6 -103 -34 -189 -69 -219 -22 -17 -42 -2 -50 37 -7 36 -58 85 -113 112
-51 24 -54 24 -54 7 0 -7 16 -21 36 -32 44 -24 79 -69 89 -113 18 -84 123 -64
177 34 30 55 56 209 44 258 -13 51 -125 85 -386 116 -79 9 -296 12 -330 4z"/>
<path d="M0 696 c0 -16 7 -27 20 -31 12 -4 51 -37 88 -74 73 -72 119 -154 142
-250 17 -73 8 -210 -19 -279 -26 -65 -26 -62 4 -62 21 0 27 8 44 64 31 101 36
172 17 266 -31 150 -119 285 -236 360 -57 36 -60 37 -60 6z"/>
</g>
</svg>
